<svg width="251" height="50" viewBox="0 0 251 50" fill="none" xmlns="http://www.w3.org/2000/svg">
<path d="M107.307 22.0493L103.685 38.6827H94.2489L97.8712 22.0493C98.1551 20.7419 97.9905 20.5009 96.6534 20.5009H93.2468C91.9182 20.5009 91.64 20.7419 91.359 22.016C91.359 22.016 91.359 22.0382 91.359 22.0493L87.7367 38.6827H78.2919L81.9171 22.0493C82.201 20.7419 82.0363 20.5009 80.6964 20.5009H77.2898C75.9499 20.5009 75.6802 20.7446 75.3963 22.0493L71.7712 38.6827H62.335L67.8962 13.1495H75.561L76.776 15.3433C77.4749 14.6252 78.321 14.0588 79.2591 13.6808C80.1972 13.3028 81.2063 13.1218 82.2208 13.1495H84.1768C87.8672 13.1495 90.3569 14.7145 91.2483 17.3598C92.8976 14.4181 95.2879 13.1495 98.175 13.1495H100.134C105.678 13.1495 108.497 16.6424 107.307 22.0493Z" fill="#5965E0"/>
<path d="M136.084 22.0492L134.401 29.7828C133.223 35.1897 128.879 38.6826 123.329 38.6826H116.181C110.64 38.6826 107.821 35.187 108.999 29.7801L110.682 22.0492C111.858 16.6423 116.201 13.1494 121.754 13.1494H128.913C134.443 13.1494 137.265 16.6423 136.084 22.0492ZM126.639 22.0492C126.923 20.7418 126.759 20.5008 125.422 20.5008H122.015C120.675 20.5008 120.405 20.7446 120.122 22.0492L118.435 29.7801C118.151 31.0875 118.319 31.3285 119.656 31.3285H123.063C124.4 31.3285 124.672 31.0847 124.956 29.7801L126.639 22.0492Z" fill="#5965E0"/>
<path d="M194.976 20.0159C194.631 21.4674 193.797 22.7643 192.608 23.6999L187.802 27.5778C186.65 28.5233 185.2 29.0551 183.695 29.0847H177.04L176.89 29.7688C176.606 31.0762 176.771 31.3172 178.111 31.3172H192.509L190.908 38.6714H174.625C169.083 38.6714 166.264 35.1757 167.442 29.7688L169.126 22.038C170.304 16.6311 174.647 13.1382 180.197 13.1382H187.362C192.89 13.1493 195.748 16.4593 194.976 20.0159ZM185.091 22.049C185.375 20.7416 185.211 20.5007 183.871 20.5007H180.464C179.13 20.4979 178.846 20.7444 178.562 22.049L177.994 24.7109H183.615C183.867 24.7008 184.109 24.6106 184.304 24.4541C184.498 24.2976 184.635 24.0834 184.694 23.844L185.091 22.049Z" fill="#5965E0"/>
<path d="M205.583 34.3476C205.061 36.7436 203.122 38.6854 200.19 38.6854C197.257 38.6854 196.167 36.7464 196.689 34.3476C197.212 31.9489 199.151 30.0127 202.083 30.0127C205.016 30.0127 206.097 31.9489 205.583 34.3476Z" fill="#4CD62B"/>
<path d="M225.83 13.1494L224.229 20.498L220.255 38.6798H210.821L214.796 20.498H210.086L211.69 13.1466L225.83 13.1494ZM218.824 8.38235C217.189 6.60959 217.688 3.56821 219.934 1.59325C222.179 -0.381709 225.328 -0.542365 226.971 1.23316C228.615 3.00868 228.107 6.05007 225.861 8.02503C223.616 9.99999 220.462 10.1606 218.824 8.38235Z" fill="#5965E0"/>
<path d="M240.972 16.8252L238.15 29.7802C237.866 31.0876 238.031 31.3286 239.368 31.3286H245.236L243.635 38.6827H235.888C230.346 38.6827 227.525 35.1871 228.703 29.7802L231.524 16.8252H227.956L229.557 9.47105H233.134L234.446 3.44922H243.89L242.579 9.47105H250.005L248.395 16.8252H240.972Z" fill="#5965E0"/>
<path d="M25.5092 3.74561H37.4834L27.522 50.0007H15.5479L25.5092 3.74561Z" fill="#5965E0"/>
<path d="M43.0786 3.74561H55.0527L47.2914 39.9874H35.3145L43.0786 3.74561Z" fill="#5965E0"/>
<path d="M7.76415 3.74561H19.7383L11.9769 39.9874H0L7.76415 3.74561Z" fill="#5965E0"/>
<path d="M171.026 13.1494L153.531 38.6826H143.879L137.497 13.1494H147.833L150.612 29.9158L160.69 13.1633L171.026 13.1494Z" fill="#5965E0"/>
</svg>
